# xmcd CD database file
#
# Track frame offsets:
#	182
#	11475
#	24135
#	38162
#	48245
#	62207
#	83377
#	95807
#	110862
#	126175
#
# Disc length: 1869 seconds
#
# Revision: 1
# Processed by: cddbd v1.5.2PL0 Copyright (c) Steve Scherf et al.
# Submitted via: CDex 1.70beta2
#
DISCID=78074b0a
DTITLE=Rex Allen Jr. and Rex Allen Sr. - The Singing Cowboys
DYEAR=1995
DGENRE=Country
TTITLE0=Can You Hear Those Pioneers
TTITLE1=Tyin' Knots In The Devil's Tail
TTITLE2=Yippi Cry Yi
TTITLE3=Ride Cowboy Ride
TTITLE4=Tumbling Tumbleweeds - Cool Water
TTITLE5=Little Joe The Wrangler
TTITLE6=Texas Plains
TTITLE7=When The Work's All Done This Fall
TTITLE8=Last Of The Silver Screen Cowboys
TTITLE9=Arizona
EXTD=YEAR: 1995
EXTT0=
EXTT1=
EXTT2=
EXTT3=
EXTT4=
EXTT5=
EXTT6=
EXTT7=
EXTT8=
EXTT9=
PLAYORDER=
